#!OML:ASF H:\Not Pregnant\Project 1\Capture day 1\Session 1\non-pregnant.ASF
:FULLY-SPECIFIED
:DEGREES
1785
root -4.79971 16.0794 19.3298 -530.869 -79.9361 542.818
lowerback -0.308143 4.35858 0.935898
upperback -9.47689 5.4876 -1.36397
thorax -9.61145 2.40946 -2.37249
lowerneck 13.8339 -6.34602 -33.0588
upperneck -2.14812 -15.2499 40.5703
head 3.46693 -9.62116 21.4676
rclavicle -5.03919e-014 -9.93923e-015
rhumerus -34.1591 -19.3843 -73.9535
rradius 29.6118
rwrist 25.2769
rhand -12.2847 4.5357
rfingers 7.12502
rthumb 13.7827 -24.9877
lclavicle -5.03919e-014 -9.93923e-015
lhumerus -51.7083 12.6141 70.9926
lradius 32.758
lwrist 32.903
lhand -17.6673 -13.9392
lfingers 7.12502
lthumb 8.5914 15.866
rfemur -25.4978 7.53338 16.3054
rtibia 35.6967
rfoot -22.5875 1.01305
rtoes -23.0014
lfemur -19.5823 5.58198 0.348554
ltibia 36.1589
lfoot -4.79038 3.76261
ltoes -23.1315
1786
root -4.81831 16.0746 19.3969 -530.648 -80.1206 542.605
lowerback -0.275618 4.26355 0.945071
upperback -9.4782 5.35902 -1.38061
thorax -9.63485 2.34413 -2.38853
lowerneck 13.797 -6.33615 -33.0203
upperneck -2.14292 -15.2151 40.5595
head 3.4544 -9.5993 21.4547
rclavicle 9.29318e-015 9.93923e-015
rhumerus -34.2953 -19.1812 -73.804
rradius 29.7695
rwrist 24.9298
rhand -12.2942 4.49658
rfingers 7.12502
rthumb 13.7735 -25.0275
lclavicle 9.29318e-015 9.93923e-015
lhumerus -51.3919 12.429 71.1855
lradius 32.6727
lwrist 32.9342
lhand -17.5333 -13.8166
lfingers 7.12502
lthumb 8.72075 15.9832
rfemur -25.4755 7.42723 16.0105
rtibia 35.7375
rfoot -22.5606 0.786595
rtoes -23.4605
lfemur -19.371 5.36406 1.07696
ltibia 35.6853
lfoot -3.41204 3.70473
ltoes -21.8808
1787
root -4.83949 16.0751 19.4864 -529.978 -80.7276 542.034
lowerback -0.321166 4.05832 1.30825
upperback -9.50302 5.08974 -1.48941
thorax -9.60427 2.17642 -2.68039
lowerneck 13.7825 -6.32594 -32.9833
upperneck -2.15009 -15.1838 40.549
head 3.43596 -9.58102 21.4432
rclavicle 1.25483e-014 -3.37934e-015
rhumerus -34.4624 -19.1192 -73.5695
rradius 29.8832
rwrist 24.7434
rhand -12.2705 4.51196
rfingers 7.12502
rthumb 13.7963 -25.0106
lclavicle 1.25483e-014 -3.37934e-015
lhumerus -51.0506 12.2234 71.4085
lradius 32.558
lwrist 32.7256
lhand -17.5119 -13.7265
lfingers 7.12502
lthumb 8.74141 16.0725
rfemur -25.4586 6.71359 15.6267
rtibia 35.6926
rfoot -22.5687 0.763275
rtoes -23.8531
lfemur -19.5616 4.65752 1.67103
ltibia 35.3296
lfoot -2.03785 3.81775
ltoes -20.4925
1788
root -4.86186 16.0785 19.594 -528.59 -81.6883 540.795
lowerback -0.417921 3.75723 1.90865
upperback -9.53787 4.69517 -1.67092
thorax -9.54263 1.92431 -3.16932
lowerneck 13.7809 -6.31524 -32.9595
upperneck -2.1617 -15.1567 40.5389
head 3.41723 -9.566 21.4356
rclavicle -2.90226e-014 6.36111e-015
rhumerus -34.6587 -19.2035 -73.2378
rradius 29.9524
rwrist 24.7256
rhand -12.1843 4.59617
rfingers 7.12502
rthumb 13.8794 -24.9207
lclavicle -2.90226e-014 6.36111e-015
lhumerus -50.6868 11.989 71.6735
lradius 32.413
lwrist 32.2558
lhand -17.6748 -13.6844
lfingers 7.12502
lthumb 8.58414 16.1211
rfemur -25.4182 5.49981 15.1464
rtibia 35.5896
rfoot -22.6033 0.888929
rtoes -24.1918
lfemur -20.0781 3.59399 2.1368
ltibia 35.0625
lfoot -0.678922 4.01727
ltoes -19.0384
1789
root -4.88392 16.081 19.7096 -526.516 -82.7988 538.841
lowerback -0.50316 3.40908 2.57652
upperback -9.5601 4.23928 -1.87065
thorax -9.48618 1.63584 -3.71515
lowerneck 13.7787 -6.30419 -32.9466
upperneck -2.16818 -15.1313 40.5249
head 3.40131 -9.55133 21.4277
rclavicle -2.31336e-014 -3.57812e-015
rhumerus -34.8707 -19.3889 -72.8316
rradius 29.9669
rwrist 24.8277
rhand -12.0595 4.72299
rfingers 7.12502
rthumb 13.9997 -24.7856
lclavicle -2.31336e-014 -3.57812e-015
lhumerus -50.3082 11.7367 71.9772
lradius 32.2349
lwrist 31.5154
lhand -18.0317 -13.7024
lfingers 7.12502
lthumb 8.23971 16.1169
rfemur -25.3025 4.07777 14.6289
rtibia 35.4711
rfoot -22.6494 1.0586
rtoes -24.5206
lfemur -20.6986 2.38358 2.55634
ltibia 34.8348
lfoot 0.636394 4.23844
ltoes -17.6465
1790
root -4.90466 16.0802 19.822 -523.76 -83.8186 536.13
lowerback -0.535144 3.08222 3.12042
upperback -9.5606 3.81051 -2.04481
thorax -9.46012 1.37214 -4.1734
lowerneck 13.7777 -6.29212 -32.9608
upperneck -2.16793 -15.1127 40.5175
head 3.39363 -9.54085 21.4303
rclavicle -7.20594e-016 -2.50469e-014
rhumerus -35.1057 -19.7309 -72.3148
rradius 29.926
rwrist 25.1014
rhand -11.8675 4.91268
rfingers 7.12502
rthumb 14.1847 -24.583
lclavicle -7.20594e-016 -2.50469e-014
lhumerus -49.9124 11.4691 72.3049
lradius 32.0244
lwrist 30.537
lhand -18.5198 -13.7518
lfingers 7.12502
lthumb 7.76868 16.0855
rfemur -25.1174 2.77469 14.1038
rtibia 35.3844
rfoot -22.6872 1.18557
rtoes -24.8279
lfemur -21.205 1.27143 2.97559
ltibia 34.5748
lfoot 1.90044 4.44772
ltoes -16.3342
1791
root -4.92443 16.0752 19.925 -521.08 -84.5965 533.428
lowerback -0.511275 2.82026 3.48412
upperback -9.54303 3.46911 -2.14976
thorax -9.46316 1.16965 -4.46773
lowerneck 13.7661 -6.28115 -32.9853
upperneck -2.15522 -15.0958 40.5022
head 3.39205 -9.52949 21.4291
rclavicle -8.39865e-015 -2.70347e-014
rhumerus -35.3388 -20.0457 -71.7557
rradius 29.8433
rwrist 25.3401
rhand -11.6834 5.04997
rfingers 7.12502
rthumb 14.3621 -24.4332
lclavicle -8.39865e-015 -2.70347e-014
lhumerus -49.5063 11.1552 72.6824
lradius 31.7978
lwrist 29.42
lhand -19.1279 -13.8481
lfingers 7.12502
lthumb 7.18166 16.01
rfemur -24.906 1.77757 13.6445
rtibia 35.3553
rfoot -22.7103 1.25538
rtoes -25.0734
lfemur -21.4792 0.446055 3.46562
ltibia 34.2426
lfoot 3.11197 4.62514
ltoes -15.1712
1792
root -4.94376 16.0651 20.0121 -519.85 -84.9815 532.066
lowerback -0.38156 2.67215 3.59405
upperback -9.5006 3.28307 -2.15643
thorax -9.5067 1.06973 -4.53045
lowerneck 13.7454 -6.26999 -33.0205
upperneck -2.12909 -15.0806 40.4826
head 3.39691 -9.51772 21.4271
rclavicle -5.06901e-015 -1.41137e-014
rhumerus -35.5738 -20.3783 -71.1649
rradius 29.7115
rwrist 25.5574
rhand -11.6075 5.11389
rfingers 7.12502
rthumb 14.4352 -24.3641
lclavicle -5.06901e-015 -1.41137e-014
lhumerus -49.1014 10.7896 73.0979
lradius 31.5901
lwrist 28.2805
lhand -19.7024 -13.8966
lfingers 7.12502
lthumb 6.62709 15.9797
rfemur -24.6587 1.32897 13.3027
rtibia 35.3924
rfoot -22.7047 1.174
rtoes -25.3639
lfemur -21.348 0.0310322 4.06764
ltibia 33.8116
lfoot 4.25689 4.79735
ltoes -14.2038
1793
root -4.96277 16.0528 20.0945 -519.522 -85.209 531.631
lowerback -0.274498 2.58086 3.62522
upperback -9.46997 3.17122 -2.12337
thorax -9.5482 1.01432 -4.51004
lowerneck 13.7219 -6.26066 -33.0515
upperneck -2.09185 -15.0681 40.4549
head 3.4049 -9.50636 21.4181
rclavicle 2.95941e-014 -9.14409e-015
rhumerus -35.812 -20.7204 -70.5421
rradius 29.5374
rwrist 25.7382
rhand -11.5999 5.09385
rfingers 7.12502
rthumb 14.4425 -24.3836
lclavicle 2.95941e-014 -9.14409e-015
lhumerus -48.7021 10.3808 73.5363
lradius 31.4126
lwrist 27.1843
lhand -20.1383 -13.8773
lfingers 7.12502
lthumb 6.20626 16.0118
rfemur -24.4979 1.06948 13.0184
rtibia 35.4881
rfoot -22.6932 1.08982
rtoes -25.5742
lfemur -21.1005 -0.213751 4.71939
ltibia 33.2928
lfoot 5.41226 5.03724
ltoes -13.4435
1794
root -4.98241 16.039 20.1771 -519.441 -85.3897 531.436
lowerback -0.174949 2.50098 3.6198
upperback -9.43601 3.07441 -2.06859
thorax -9.58245 0.9708 -4.446
lowerneck 13.679 -6.25135 -33.103
upperneck -2.03202 -15.0579 40.4203
head 3.4247 -9.49385 21.4082
rclavicle 2.67365e-014 6.16232e-015
rhumerus -36.0488 -21.0979 -69.8792
rradius 29.3211
rwrist 25.9297
rhand -11.6697 4.99964
rfingers 7.12502
rthumb 14.3753 -24.4826
lclavicle 2.67365e-014 6.16232e-015
lhumerus -48.3243 9.94753 74.0009
lradius 31.2977
lwrist 26.228
lhand -20.3759 -13.7805
lfingers 7.12502
lthumb 5.97694 16.1152
rfemur -24.3595 0.845184 12.7425
rtibia 35.6313
rfoot -22.6978 1.01433
rtoes -25.7712
lfemur -20.7777 -0.43625 5.36238
ltibia 32.6976
lfoot 6.5899 5.36125
ltoes -12.8408
1795
root -5.00261 16.024 20.2607 -519.28 -85.5104 531.156
lowerback -0.0839765 2.42266 3.54993
upperback -9.3972 2.97747 -1.99345
thorax -9.6094 0.933924 -4.32306
lowerneck 13.59 -6.24114 -33.1726
upperneck -1.9338 -15.0411 40.3667
head 3.45982 -9.47215 21.3886
rclavicle 1.00635e-014 5.1684e-015
rhumerus -36.2563 -21.5001 -69.1841
rradius 29.0437
rwrist 26.1546
rhand -11.7837 4.85716
rfingers 7.12502
rthumb 14.2654 -24.6329
lclavicle 1.00635e-014 5.1684e-015
lhumerus -47.9814 9.52316 74.4846
lradius 31.2724
lwrist 25.4854
lhand -20.3258 -13.573
lfingers 7.12502
lthumb 6.02525 16.3213
rfemur -24.2435 0.643375 12.437
rtibia 35.8101
rfoot -22.7179 0.96895
rtoes -25.9574
lfemur -20.3904 -0.673572 5.95788
ltibia 32.0537
lfoot 7.77469 5.78785
ltoes -12.2996
